<svg xmlns="http://www.w3.org/2000/svg" width="728.405" height="483.276" viewBox="0 0 728.405 483.276">
  <g id="Group_4" data-name="Group 4" transform="translate(-296.661 -278.362)">
    <g id="Group_3" data-name="Group 3">
      <g id="Group_2" data-name="Group 2" transform="translate(259 291)">
        <path id="Path_28" data-name="Path 28" d="M978.033,618.5h-379a5.006,5.006,0,0,1-5-5v-417a5.006,5.006,0,0,1,5-5h379a5.006,5.006,0,0,1,5,5v417a5.006,5.006,0,0,1-5,5Zm-379-425a3,3,0,0,0-3,3v417a3,3,0,0,0,3,3h379a3,3,0,0,0,3-3v-417a3,3,0,0,0-3-3Z" transform="translate(-216.967 -191.5)" fill="#3f3d56"/>
        <path id="Path_29" data-name="Path 29" d="M762.533,350.5h-94a5.006,5.006,0,0,1-5-5v-94a5.006,5.006,0,0,1,5-5h94a5.006,5.006,0,0,1,5,5v94a5.006,5.006,0,0,1-5,5Zm-94-102a3,3,0,0,0-3,3v94a3,3,0,0,0,3,3h94a3,3,0,0,0,3-3v-94a3,3,0,0,0-3-3Z" transform="translate(-216.967 -191.5)" fill="#f2f2f2"/>
        <path id="Path_30" data-name="Path 30" d="M735.533,362h-94a4.505,4.505,0,0,1-4.5-4.5v-94a4.505,4.505,0,0,1,4.5-4.5h94a4.505,4.505,0,0,1,4.5,4.5v94a4.505,4.505,0,0,1-4.5,4.5Z" transform="translate(-216.967 -191.5)" fill="#ed1250"/>
        <path id="Path_31" data-name="Path 31" d="M935.533,408h-294a4.5,4.5,0,0,1,0-9h294a4.5,4.5,0,0,1,0,9Z" transform="translate(-216.967 -191.5)" fill="rgba(255,178,107,0.75)"/>
        <path id="Path_32" data-name="Path 32" d="M864.533,439h-223a4.5,4.5,0,0,1,0-9h223a4.5,4.5,0,0,1,0,9Z" transform="translate(-216.967 -191.5)" fill="rgba(255,178,107,0.75)"/>
        <path id="Path_33" data-name="Path 33" d="M934.533,294h-130a4.5,4.5,0,0,1,0-9h130a4.5,4.5,0,1,1,0,9Z" transform="translate(-216.967 -191.5)" fill="#ffc590"/>
        <path id="Path_34" data-name="Path 34" d="M902.09,325H804.534a4.5,4.5,0,0,1,0-9H902.09a4.5,4.5,0,0,1,0,9Z" transform="translate(-216.967 -191.5)" fill="#ffc590"/>
        <path id="Path_35" data-name="Path 35" d="M935.533,470h-294a4.5,4.5,0,0,1,0-9h294a4.5,4.5,0,0,1,0,9Z" transform="translate(-216.967 -191.5)" fill="rgba(255,178,107,0.75)"/>
        <path id="Path_36" data-name="Path 36" d="M864.533,501h-223a4.5,4.5,0,0,1,0-9h223a4.5,4.5,0,0,1,0,9Z" transform="translate(-216.967 -191.5)" fill="rgba(255,178,107,0.75)"/>
        <path id="Path_37" data-name="Path 37" d="M935.533,532h-294a4.5,4.5,0,0,1,0-9h294a4.5,4.5,0,0,1,0,9Z" transform="translate(-216.967 -191.5)" fill="rgba(255,178,107,0.75)"/>
        <path id="Path_38" data-name="Path 38" d="M935.533,563h-294a4.5,4.5,0,0,1,0-9h294a4.5,4.5,0,0,1,0,9Z" transform="translate(-216.967 -191.5)" fill="rgba(255,178,107,0.75)"/>
        <path id="Path_39" data-name="Path 39" d="M698.463,579.811h-215a5.006,5.006,0,0,1-5-5v-133a5.006,5.006,0,0,1,5-5h215a5.006,5.006,0,0,1,5,5v133a5.006,5.006,0,0,1-5,5Z" transform="translate(-216.967 -191.5)" fill="#fff"/>
        <path id="Path_40" data-name="Path 40" d="M698.463,579.811h-215a5.006,5.006,0,0,1-5-5v-133a5.006,5.006,0,0,1,5-5h215a5.006,5.006,0,0,1,5,5v133a5.006,5.006,0,0,1-5,5Zm-215-141a3,3,0,0,0-3,3v133a3,3,0,0,0,3,3h215a3,3,0,0,0,3-3v-133a3,3,0,0,0-3-3Z" transform="translate(-216.967 -191.5)" fill="#3f3d56"/>
        <path id="Path_41" data-name="Path 41" d="M655.963,497.311h-130a4.5,4.5,0,0,1,0-9h130a4.5,4.5,0,0,1,0,9Z" transform="translate(-216.967 -191.5)" fill="#ffc590"/>
        <path id="Path_42" data-name="Path 42" d="M655.963,528.311h-130a4.5,4.5,0,0,1,0-9h130a4.5,4.5,0,0,1,0,9Z" transform="translate(-216.967 -191.5)" fill="#ffc590"/>
      </g>
      <g id="Group_1" data-name="Group 1" transform="translate(-227.609 127.515)">
        <path id="Path_1" data-name="Path 1" d="M524.709,634.123h297.17v-2.106H524.27Z" transform="translate(0)" fill="#3f3d56"/>
        <path id="Path_15" data-name="Path 15" d="M625.271,600.594h10.277L633.713,543.7l-27.162,1.468Z" transform="translate(89.869)" fill="#ffb8b8"/>
        <path id="Path_16" data-name="Path 16" d="M796.6,766.229c3.1,1.416,5.7-10.055,8.317-7.483,7.319,7.193,14.881,8.759,24.651,5.619l.226-.038a4.575,4.575,0,0,0,2.884-5.962h0a4.575,4.575,0,0,0-3.174-2.832l-7.784-1.946L809.5,732.092l-12.477-.843h0a29.808,29.808,0,0,0-5.513,25.429C792.641,761.3,794.389,765.22,796.6,766.229Z" transform="translate(-79.219 -132.939)" fill="#2f2e41"/>
        <path id="Path_17" data-name="Path 17" d="M685.691,593.074l9.557,3.78,19.219-53.579-25.8-8.625Z" transform="translate(-81.803)" fill="#ffb8b8"/>
        <path id="Path_18" data-name="Path 18" d="M901.726,755.9c2.364,2.457,9-7.253,10.487-3.9,4.161,9.38,10.617,13.618,20.857,14.291l.224.048a4.575,4.575,0,0,0,4.875-4.484h0a4.576,4.576,0,0,0-1.91-3.8l-6.523-4.672-3.46-24.482-11.292-5.373h0A29.808,29.808,0,0,0,900.5,745.147C899.857,749.861,900.04,754.149,901.726,755.9Z" transform="translate(-313.349 -132.939)" fill="#2f2e41"/>
        <path id="Path_19" data-name="Path 19" d="M919.109,451.3l15.778,4.057a8.258,8.258,0,0,0,10.308-7.68h0a8.258,8.258,0,0,0-8.518-8.571l-13.9.448L896,429.8l25.313-18.878L918.374,384.5l-49.331,39.6A8.2,8.2,0,0,0,866,429.908h0a8.2,8.2,0,0,0,6.009,8.487C883.567,447.828,900.407,450.718,919.109,451.3Z" transform="translate(-285.562 -132.939)" fill="#ffb8b8"/>
        <circle id="Ellipse_103" data-name="Ellipse 103" cx="25.693" cy="25.693" r="25.693" transform="translate(654.568 167.873)" fill="#ffb8b8"/>
        <path id="Path_20" data-name="Path 20" d="M845.09,361.741l34.5,13.948a46.631,46.631,0,0,1,8.075-30.832l-28.629-6.607C859.41,346.994,854.682,354.81,845.09,361.741Z" transform="translate(-198.325 -132.939)" fill="#ffb8b8"/>
        <path id="Path_21" data-name="Path 21" d="M833.926,421.569c27.813,2.226,43.025-1.467,66.435-15.049l-8.809-20.554h0a17,17,0,0,0-7-16.278l-9.146-6.479-27.9-8.075-1.251.063a15.269,15.269,0,0,0-14.462,14.079C825.733,387.386,825.694,404.893,833.926,421.569Z" transform="translate(-193.002 -132.939)" fill="#ffb26b"/>
        <path id="Path_22" data-name="Path 22" d="M828.644,464.513l59.461-6.607,4.4-19.086c9.763-14.738,5.5-28.237-5.873-41.109-20.733,13.306-39.978,19.056-67.536,14.682C826.43,430.216,833.2,447.733,828.644,464.513Z" transform="translate(-181.039 -132.939)" fill="#2f2e41"/>
        <path id="Path_23" data-name="Path 23" d="M803.247,686.942l47.349-2.569L866.011,561.78l12.48,121.858,56.157-2.569c-17.13-80.111-29.031-156.163-25.693-226.1l-58.727,5.139c-19.9,20.985-29.786,54.485-35.6,94.33S804.119,640.475,803.247,686.942Z" transform="translate(-204.808 -132.939)" fill="#2f2e41"/>
        <circle id="Ellipse_104" data-name="Ellipse 104" cx="8.831" cy="8.831" r="8.831" transform="translate(638.339 152.514)" fill="#2f2e41"/>
        <path id="Path_24" data-name="Path 24" d="M882.992,292.122a8.824,8.824,0,0,0-8.827-8.254c.182-.023.363-.051.549-.063a8.831,8.831,0,0,1,1.133,17.626c-.186.012-.369.007-.553.008A8.824,8.824,0,0,0,882.992,292.122Z" transform="translate(-225.773 -132.939)" fill="#2f2e41"/>
        <path id="Path_25" data-name="Path 25" d="M843.618,295.893c7.876-6.534,30.467,1.77,31.925,6.163,10.651,1.451,18.715,7.666,18.715,18.715h0c-6.332,2.594-13.534,2.274-21.319,0-12.41,10.113-13.261,22.827-5.714,37.429l-9.285.186-11.509-16.821-.55,17.062L824.6,358.2V333.749a51.12,51.12,0,0,1,5.458-23.42C833.372,303.885,838.519,300.123,843.618,295.893Z" transform="translate(-183.076 -132.939)" fill="#2f2e41"/>
        <ellipse id="Ellipse_105" data-name="Ellipse 105" cx="4.223" cy="5.912" rx="4.223" ry="5.912" transform="translate(676.633 194.329)" fill="#ffb8b8"/>
        <path id="Path_26" data-name="Path 26" d="M780.551,559.928a1.483,1.483,0,0,0-1.483,1.483V620.73a1.483,1.483,0,0,0,1.483,1.483h42.562a1.483,1.483,0,0,0,1.483-1.483V561.411a1.483,1.483,0,0,0-1.483-1.483H780.551" transform="translate(-57.253 -132.939)" fill="#ed1250"/>
        <path id="Path_27" data-name="Path 27" d="M844.958,537.922l-1.437,24.913A10.819,10.819,0,0,0,855.9,574.162h0c6.33-.931,6.473-7.121,4.922-13.328l-5.912-23.647c-14.5-52-18.417-103.036-17.684-152.812a12.5,12.5,0,0,0-12.834-12.714h0a12.491,12.491,0,0,0-12.121,12.927C814.32,443.039,822.845,496.119,844.958,537.922Z" transform="translate(-133.923 -132.939)" fill="#ffb8b8"/>
      </g>
    </g>
  </g>
</svg>
