<?xml version="1.0" encoding="UTF-8"?>
<svg xmlns="http://www.w3.org/2000/svg" xmlns:xlink="http://www.w3.org/1999/xlink" width="678pt" height="440.04pt" viewBox="0 0 678 440.04" version="1.1">
<defs>
<clipPath id="clip1">
  <path d="M 355 313 L 456 313 L 456 440.039063 L 355 440.039063 Z M 355 313 "/>
</clipPath>
<clipPath id="clip2">
  <path d="M 254 313 L 348 313 L 348 440.039063 L 254 440.039063 Z M 254 313 "/>
</clipPath>
</defs>
<g id="surface1">
<path style=" stroke:none;fill-rule:nonzero;fill:rgb(44.299316%,53.29895%,85.499573%);fill-opacity:1;" d="M 615 394.832031 L 585 367 L 585 314.996094 L 639 314.996094 C 639 314.996094 678 319.496094 678 352 L 678 402.5 C 678 420.832031 655.664063 438 637.5 438 L 585 438 L 585 408 L 638 408 C 638 408 648 408.25 647 387.332031 L 647 354 C 647 354 645.664063 345 634 345 L 615 345 "/>
<path style=" stroke:none;fill-rule:nonzero;fill:rgb(44.299316%,53.29895%,85.499573%);fill-opacity:1;" d="M 524.667969 372.996094 C 538.667969 372.996094 537.335938 358.996094 537.335938 358.996094 C 537.335938 347.246094 528.667969 344.996094 525 344.996094 L 504 344.996094 L 504 372.996094 Z M 577 437.996094 L 537.335938 437.996094 L 510 398.996094 L 504 398.996094 L 504 438.996094 L 473 438.996094 L 473 315.996094 L 528 315.996094 C 547.335938 315.996094 567.667969 329.246094 567.667969 358.246094 C 567.667969 387.246094 543.332031 397.039063 543.332031 397.039063 "/>
<g clip-path="url(#clip1)" clip-rule="nonzero">
<path style=" stroke:none;fill-rule:nonzero;fill:rgb(44.299316%,53.29895%,85.499573%);fill-opacity:1;" d="M 386 397.996094 L 386 355.332031 C 386 347.425781 395.578125 342.222656 405.671875 341.710938 C 415.734375 342.222656 425 347.425781 425 355.332031 L 425 397.996094 C 424.011719 401.960938 419.386719 409.835938 405.695313 409.984375 C 392 409.835938 386.988281 401.960938 386 397.996094 M 453.984375 341.074219 L 454.164063 340.996094 C 454.164063 340.996094 453.839844 340.320313 453.164063 339.1875 C 449.949219 332.386719 443.621094 324.589844 432.378906 319.429688 C 426.023438 316.085938 418.171875 313.710938 408.644531 313.710938 C 407.640625 313.710938 406.667969 313.738281 405.695313 313.769531 C 404.726563 313.738281 403.757813 313.710938 402.75 313.710938 C 393.59375 313.710938 385.992188 315.898438 379.796875 319.035156 C 360.59375 327.378906 355 343.269531 355 349.996094 L 355 406.996094 C 355 406.996094 357.960938 420.125 371.464844 429.832031 C 378.558594 435.398438 388.917969 440.039063 403.769531 440.039063 C 404.429688 440.039063 405.054688 440.011719 405.695313 439.996094 C 406.339844 440.011719 406.964844 440.039063 407.625 440.039063 C 425.625 440.039063 437.117188 433.226563 444.199219 426.207031 C 453.828125 417.152344 456 406.996094 456 406.996094 L 456 349.996094 C 456 347.804688 455.417969 344.636719 453.984375 341.074219 "/>
</g>
<g clip-path="url(#clip2)" clip-rule="nonzero">
<path style=" stroke:none;fill-rule:nonzero;fill:rgb(44.299316%,53.29895%,85.499573%);fill-opacity:1;" d="M 319.914063 399.496094 L 347.25 411.082031 C 347.25 411.082031 337.730469 440.039063 300.625 440.039063 C 263.519531 440.039063 254 406.996094 254 406.996094 L 254 349.996094 C 254 340.664063 269.3125 313.710938 301.644531 313.710938 C 333.980469 313.710938 347.164063 340.996094 347.164063 340.996094 L 321.1875 351.996094 C 321.1875 351.996094 313.96875 341.664063 303.304688 341.664063 C 292.636719 341.664063 285 346.996094 285 355.332031 L 285 397.996094 C 286 401.996094 288.082031 409.996094 302.082031 409.996094 C 316.082031 409.996094 319.914063 399.496094 319.914063 399.496094 "/>
</g>
<path style=" stroke:none;fill-rule:nonzero;fill:rgb(44.299316%,53.29895%,85.499573%);fill-opacity:1;" d="M 241.335938 331.996094 L 220.5 347.996094 C 220.5 347.996094 190.832031 325.332031 186.5 347.996094 C 182.167969 370.664063 242 346.996094 244.5 399.496094 C 244.5 399.496094 240.5 438.496094 202 438.496094 C 163.5 438.496094 154.5 418.496094 154.5 418.496094 L 173.667969 399.664063 C 173.667969 399.664063 207 422.996094 213.667969 402.996094 C 217.296875 392.109375 200.675781 392.484375 184.105469 386.695313 C 184.105469 386.695313 155.5 382.246094 155.5 349.246094 C 155.5 349.246094 154.75 313.746094 200.5 313.746094 C 200.5 313.746094 219.917969 311.996094 241.335938 331.996094 "/>
<path style=" stroke:none;fill-rule:nonzero;fill:rgb(44.299316%,53.29895%,85.499573%);fill-opacity:1;" d="M 109 438.996094 L 140 438.996094 L 140 315.996094 L 109 315.996094 Z M 109 438.996094 "/>
<path style=" stroke:none;fill-rule:nonzero;fill:rgb(44.299316%,53.29895%,85.499573%);fill-opacity:1;" d="M 30 394.832031 L 0 367 L 0 314.996094 L 54 314.996094 C 54 314.996094 93 319.496094 93 352 L 93 402.5 C 93 420.832031 70.667969 438 52.5 438 L 0 438 L 0 408 L 53 408 C 53 408 63 408.25 62 387.332031 L 62 354 C 62 354 60.667969 345 49 345 L 30 345 "/>
<path style=" stroke:none;fill-rule:nonzero;fill:rgb(44.299316%,53.29895%,85.499573%);fill-opacity:1;" d="M 405.085938 83.460938 C 402.601563 71.546875 364.894531 59.441406 361.476563 65.015625 C 362.644531 68.4375 380.242188 69.183594 396.792969 83.089844 C 381.183594 72.957031 356.984375 70.074219 345.160156 69.261719 L 341.222656 69.058594 L 341.152344 69.0625 L 341.15625 69.058594 L 337.308594 69.261719 C 325.480469 70.074219 301.3125 72.953125 285.699219 83.085938 C 302.25 69.179688 319.863281 68.433594 321.03125 65.011719 C 317.613281 59.4375 279.914063 71.539063 277.425781 83.449219 C 277.425781 83.449219 257.75 121.796875 260.746094 158.421875 C 272.402344 175.066406 297.015625 180.082031 303.667969 178.421875 C 310.328125 170.089844 311.304688 167.746094 311.304688 167.746094 C 311.304688 167.746094 292.6875 160.085938 288.066406 151.597656 C 297.957031 156.828125 307 165.996094 337 166.996094 L 345 166.996094 C 375 165.996094 384.308594 156.828125 394.195313 151.597656 C 389.570313 160.085938 371.183594 167.804688 371.183594 167.804688 C 371.183594 167.804688 372.171875 170.121094 378.839844 178.453125 C 385.488281 180.109375 410.113281 175.082031 421.769531 158.4375 C 424.765625 121.8125 405.085938 83.460938 405.085938 83.460938 M 462 273.996094 L 397.5 217.332031 L 404 241.996094 L 253 241.996094 C 220 241.996094 220 211.996094 220 211.996094 L 220 29.996094 C 220 29.996094 220.007813 5.257813 244.726563 0.714844 L 245 -0.00390625 L 437 -0.00390625 L 436.382813 0.578125 C 461.980469 4.691406 462 29.996094 462 29.996094 "/>
<path style=" stroke:none;fill-rule:nonzero;fill:rgb(44.299316%,53.29895%,85.499573%);fill-opacity:1;" d="M 301.945313 129.996094 C 301.945313 120.945313 307.289063 114.609375 316.351563 114.609375 C 325.414063 114.609375 329.757813 125.121094 329.757813 129.996094 C 329.757813 133.996094 325.414063 145.386719 316.351563 145.386719 C 307.289063 145.386719 301.945313 139.050781 301.945313 129.996094 "/>
<path style=" stroke:none;fill-rule:nonzero;fill:rgb(44.299316%,53.29895%,85.499573%);fill-opacity:1;" d="M 379.761719 129.996094 C 379.761719 120.945313 374.414063 114.609375 365.351563 114.609375 C 356.289063 114.609375 351.945313 125.121094 351.945313 129.996094 C 351.945313 133.996094 356.289063 145.386719 365.351563 145.386719 C 374.414063 145.386719 379.761719 139.050781 379.761719 129.996094 "/>
</g>
</svg>
